<svg width="85" height="85" viewBox="0 0 85 85" fill="none" xmlns="http://www.w3.org/2000/svg">
<path d="M24.3224 24.3453H4.19323V4.19738H24.3224V24.3453ZM28.5155 4.3869e-05H0V28.5436H28.5155V4.3869e-05Z" fill="white"/>
<path d="M20.7573 7.84924H8.05127V20.5677H20.7573V7.84924Z" fill="white"/>
<path d="M4.19323 60.6547H24.3224V80.8027H4.19323V60.6547ZM0 85H28.5155V56.4574H0V85Z" fill="white"/>
<path d="M8.05127 77.0243H20.7573V64.3058H8.05127V77.0243Z" fill="white"/>
<path d="M80.8068 24.3453H60.6795V4.19738H80.8068V24.3453ZM56.4854 4.3869e-05V28.5436H85V4.3869e-05H56.4854Z" fill="white"/>
<path d="M77.2436 7.84924H64.5376V20.5677H77.2436V7.84924Z" fill="white"/>
<path d="M39.1548 38.2848V42.3464H43.2583V38.2848H39.1548Z" fill="white"/>
<path d="M47.3618 42.3465H43.2583V46.4091H47.3618V42.417H51.4653V38.3544H47.3618V42.3465Z" fill="white"/>
<path d="M51.4653 34.324V38.3545H60.4003V34.2919H55.5688V30.2614H51.4653V34.2919V34.324Z" fill="white"/>
<path d="M51.4653 50.4717V46.4091H47.3618V50.4717H51.4653Z" fill="white"/>
<path d="M39.1548 54.5342H43.2344V63.1801H47.337V54.5342H47.3618V50.4716H39.1548V54.5342Z" fill="white"/>
<path d="M69.2134 60.1377H78.5925V56.6159H69.2134V60.1377Z" fill="white"/>
<path d="M69.2136 53.0135V49.7915H59.8345V53.3142H65.5744V56.616H69.2136V53.3142V53.0135Z" fill="white"/>
<path d="M75.0356 53.0832H78.5925V56.616H82.2307V53.0135H78.5925V43.7976H75.0356V53.0832Z" fill="white"/>
<path d="M33.2124 34.324H37.315V30.2614H33.2124V34.324Z" fill="white"/>
<path d="M41.4193 22.6468H37.3149V30.2614H51.4651V26.4994V12.4903H47.6648V26.4994H41.4193V22.6468Z" fill="white"/>
<path d="M33.2124 18.5843V22.6469H37.315V18.5843H33.2124Z" fill="white"/>
<path d="M41.4193 14.5215H37.3149V18.5841H41.4193V14.5215Z" fill="white"/>
<path d="M47.6245 8.42764H43.521V12.4902H47.6245V8.42764Z" fill="white"/>
<path d="M37.7804 6.82446H41.4196V1.33514e-05H32.0396V3.52269H37.7804V6.82446Z" fill="white"/>
<path d="M11.7695 40.9852H8.0698V37.4433H4.06706V33.4201H0.00390625V37.4433V48.73H8.0698V44.6472H11.7649V50.2709H15.3226V40.9852H11.7695Z" fill="white"/>
<path d="M18.9605 40.9852H22.2151V31.6996H18.6574V37.3828H15.3223V40.9852H18.6574H18.9605Z" fill="white"/>
<path d="M31.9087 53.8733V50.2709H28.2695V53.8733H31.9087Z" fill="white"/>
<path d="M18.89 46.7491V50.2709H15.3223V53.8733H18.9605V50.2709H28.2691V46.7491H18.89Z" fill="white"/>
<path d="M37.2045 42.6865H32.374V38.656H28.2695V42.6865V42.7186V46.7491H37.2045V42.6865Z" fill="white"/>
<path d="M43.7246 71.9662V67.9036H39.6211V71.9662H43.6541V76.0288H47.7567V71.9662H43.7246Z" fill="white"/>
<path d="M51.8278 76.0288H47.7563V84.8745H51.8607V80.0914H55.9313V76.0288H51.8607H51.8278Z" fill="white"/>
<path d="M35.5176 76.0288H39.621V71.9662H35.5176V76.0288Z" fill="white"/>
<path d="M31.4141 63.8409V71.9661H35.5175V63.8409H31.4141Z" fill="white"/>
<path d="M55.9312 76.0288H59.7315V62.0196H55.9312V76.0288Z" fill="white"/>
<path d="M51.8281 57.957V62.0195H55.9316V57.957H51.8281Z" fill="white"/>
<path d="M65.0485 64.8557H76.2582V76.0755H65.0485V64.8557ZM62.7134 78.413H78.5925V62.5183H62.7134V78.413Z" fill="white"/>
<path d="M67.1973 73.9718H74.2733V66.8898H67.1973V73.9718Z" fill="white"/>
<path d="M74.5342 32.4275V36.5359H78.5928V32.4275H74.5342Z" fill="white"/>
<path d="M78.5923 40.195V43.7975H82.2306V36.5358H78.5923V40.195Z" fill="white"/>
<path d="M60.4004 42.7415H64.459V46.7014H68.5167V42.5939H64.459V38.634H60.4004V42.7415Z" fill="white"/>
<path d="M69.7956 30.7838H60.519V34.345H69.7956V30.7838Z" fill="white"/>
<path d="M57.5981 55.692V46.7492H53.5396V55.692H57.5981Z" fill="white"/>
</svg>
