<svg width="1920" height="1080" viewBox="0 0 1920 1080" fill="none" xmlns="http://www.w3.org/2000/svg">
<path d="M1612.81 76.0508C1662.37 27.2272 1794.3 0 1920 0H0V1080H1878.55C1878.55 1080 1544.32 1070.63 1530.92 944.264C1526.6 903.561 1560.3 882.146 1554.6 841.565C1541.79 750.313 1410.06 735.147 1340.91 691.729C1271.75 648.311 1276.91 537.837 1297.52 486.234C1333.52 396.146 1549.4 333.582 1586.29 243.492C1609.08 187.988 1560.29 127.827 1612.81 76.0508Z" fill="#EBF8FF"/>
<path opacity="0.15" d="M1536.69 76.0508C1586.25 27.2272 1718.17 0 1843.88 0H0V1080H1802.43C1802.43 1080 1468.2 1070.63 1454.8 944.264C1450.48 903.561 1484.18 882.146 1478.48 841.565C1465.67 750.313 1333.94 735.147 1264.78 691.729C1195.62 648.311 1200.79 537.837 1221.39 486.234C1257.39 396.146 1473.28 333.582 1510.16 243.492C1532.96 187.988 1484.17 127.827 1536.69 76.0508Z" fill="#63A8E7"/>
<path opacity="0.5" d="M1465.64 76.0508C1515.2 27.2272 1647.12 0 1772.83 0H0V1080H1731.38C1731.38 1080 1397.15 1070.63 1383.75 944.264C1379.43 903.561 1413.13 882.146 1407.43 841.565C1394.62 750.313 1262.89 735.147 1193.73 691.729C1124.58 648.311 1129.74 537.837 1150.34 486.234C1186.34 396.146 1402.23 333.582 1439.12 243.492C1461.91 187.988 1413.12 127.827 1465.64 76.0508Z" fill="url(#paint0_linear_940_4054)"/>
<defs>
<linearGradient id="paint0_linear_940_4054" x1="135.33" y1="539.93" x2="1772.82" y2="539.93" gradientUnits="userSpaceOnUse">
<stop stop-color="#63A8E7"/>
<stop offset="1" stop-color="#77C4EE"/>
</linearGradient>
</defs>
</svg>
