<svg width="272" height="380" viewBox="0 0 272 380" fill="none" xmlns="http://www.w3.org/2000/svg">
<g clip-path="url(#clip0_1286_7256)">
<path d="M119.852 352.966C118.371 354.724 115.055 353.216 114.266 351.452C113.269 349.216 114.581 346.236 117.172 346.054C118.366 345.97 119.107 346.013 120.104 346.792C122.241 348.463 121.342 351.195 119.852 352.966ZM111.829 311.256C110.832 309.023 112.144 306.04 114.737 305.858C115.932 305.774 116.67 305.817 117.67 306.597C119.804 308.267 118.907 310.999 117.415 312.77C115.937 314.53 112.617 313.02 111.829 311.256ZM127.098 335.433C126.964 331.174 126.825 326.913 126.632 322.652C126.245 314.037 125.644 305.421 124.435 296.877C122.412 282.574 117.09 269.846 113.367 256.037C111.892 250.564 110.733 245.007 109.848 239.408C108.197 228.967 107.541 218.468 107.63 207.922C107.719 197.587 108.466 187.15 112.091 177.379C114.059 172.069 116.244 165.41 120.556 161.51C121.239 160.894 122.45 160.215 123.012 159.639C123.012 159.633 123.012 159.628 123.012 159.624C123.226 159.459 121.83 159.292 122.027 159.112C122.175 158.157 122.354 157.204 122.496 156.236C122.508 156.166 122.518 156.091 122.528 156.018C120.3 155.838 119.444 157.451 117.485 158.301C112.817 160.335 108.024 162.071 103.372 164.151C101.231 165.108 99.0573 166.11 96.9663 167.127C94.9249 168.123 93.3211 169.795 91.2703 170.795C88.9778 171.913 86.6805 173.02 84.3496 174.063C86.1057 173.255 82.5879 174.853 84.3496 174.063C85.6055 177.454 81.9525 183.086 83.9225 186.116C83.8603 186.334 83.7978 186.553 83.7296 186.771C81.9992 192.28 78.6247 197.036 76.3222 202.293C75.7572 203.584 75.2837 204.899 74.8152 206.207L74.8199 206.209C75.875 206.783 75.9182 208.072 76.2764 209.184C79.2495 218.406 74.3753 223.734 73.0366 232.363C71.9622 239.271 74.5436 245.519 74.2575 252.266C74.0723 256.619 71.6592 260.347 70.5417 264.456C70.0417 266.298 69.6931 268.174 69.4288 270.062C66.9315 288.068 62.8866 305.982 59.3654 323.844C58.5217 328.123 57.7912 332.746 56.688 337.266L56.6974 337.268C57.8321 351.084 57.9786 365.216 57.8729 379.179H127.017C127.32 372.94 127.548 366.693 127.567 360.445C127.596 352.043 127.365 343.814 127.098 335.433Z" fill="#63A8E7"/>
<path d="M117.67 306.597C119.804 308.267 118.907 310.999 117.415 312.77C115.937 314.53 112.617 313.02 111.829 311.256C110.832 309.023 112.144 306.04 114.737 305.858C115.932 305.774 116.67 305.817 117.67 306.597Z" fill="#37628F"/>
<path d="M226.188 379.179H169.609C169.688 370.498 169.801 361.756 169.029 353.15C168.381 345.912 167.992 338.643 168.187 331.375C168.347 325.405 167.874 319.352 168.075 313.339C168.3 306.612 169.743 299.922 170.019 293.166C170.227 288.128 171.093 283.255 172.158 278.33C173.379 272.679 173.302 266.857 174.844 261.221C176.405 255.529 178.058 249.87 179.185 244.041C180.211 238.74 180.842 233.393 181.926 228.117C184.388 216.158 184.448 204.057 182.497 192.011C181.928 188.493 181.685 184.996 180.814 181.521C179.11 174.722 176.013 168.093 170.71 163.367C168.749 161.62 166.063 160.774 164.149 159.149C163.97 158.198 163.762 157.254 163.589 156.29C163.574 156.217 163.561 156.144 163.55 156.072C165.77 155.821 168.281 157.354 170.265 158.144C174.996 160.029 179.841 161.611 184.557 163.543C186.727 164.429 188.93 165.363 191.053 166.313C193.126 167.243 194.781 168.866 196.861 169.799C199.188 170.844 201.521 171.876 203.882 172.846C208.907 174.911 213.984 176.902 218.693 179.636C224.942 183.266 230.816 186.895 235.792 192.276C240.441 197.306 244.139 203.944 247.353 209.955C250.916 216.605 253.601 224.042 256.009 231.181C256.591 232.911 257.446 234.654 257.784 236.446C258.415 239.821 258.644 243.341 259.153 246.754C259.73 250.611 260.252 254.48 260.733 258.352C261.706 266.225 262.498 274.122 263.18 282.025C264.05 292.104 263.941 302.245 265.021 312.309C266.075 322.166 269.916 331.011 271.575 340.683C272.649 346.957 271.398 353.251 270.989 359.522C270.767 362.901 272.009 366.167 271.969 369.528C271.93 372.766 271.064 375.931 270.974 379.179H226.188Z" fill="#63A8E7"/>
<path d="M43.4606 198.666L43.4604 198.665C43.2596 197.718 43.1103 196.793 42.9574 195.847C42.8519 195.194 42.7447 194.53 42.6177 193.841C42.2976 192.104 41.9078 190.383 41.5212 188.678C39.9039 181.551 38.7282 175.056 40.9163 168.093C41.7729 165.368 42.8995 162.742 44.0407 160.082C44.2267 159.648 44.4132 159.213 44.5989 158.777C45.9176 155.68 47.1945 152.521 47.9739 149.173C48.9652 144.916 48.8212 140.645 48.6787 136.418C48.6669 136.068 48.6551 135.718 48.644 135.369V135.368C48.5261 131.736 48.6066 128.115 48.6876 124.474C48.7319 122.48 48.7764 120.48 48.7884 118.471C48.7909 118.066 48.7886 117.649 48.7862 117.223C48.7768 115.522 48.7666 113.683 49.058 111.957C49.4199 109.814 50.2254 108.001 51.9499 106.944C52.4603 106.632 52.7971 106.519 53.098 106.505C53.4034 106.49 53.7574 106.574 54.3128 106.825C55.762 107.481 56.6825 108.908 57.2574 110.675C57.8295 112.433 58.0218 114.414 58.0943 115.997C58.3844 122.365 58.2977 128.707 58.2106 135.081C58.1753 137.661 58.14 140.246 58.1295 142.84M43.4606 198.666C43.5802 199.235 43.7182 199.799 43.8812 200.36M43.4606 198.666L43.8812 200.36M58.1295 142.84C58.1282 143.127 58.1548 143.357 58.1809 143.557M58.1295 142.84L58.1809 143.557M43.8812 200.36C44.1023 201.118 44.3834 201.865 44.6749 202.642M43.8812 200.36L44.6749 202.642M84.0177 166.366C84.0072 164.391 84.4359 162.505 84.8477 160.693C84.9219 160.366 84.9956 160.042 85.0661 159.72C85.2007 159.105 85.3695 158.46 85.5389 157.812C85.5885 157.622 85.6382 157.432 85.687 157.243C85.9052 156.397 86.1114 155.548 86.2501 154.706C86.5288 153.015 86.5205 151.434 85.8495 150.061L85.8491 150.06C85.246 148.822 84.0629 147.991 82.6813 147.484C81.9441 147.213 81.3045 147.365 80.3347 147.691C78.9186 148.169 77.7974 149.241 76.9301 150.609C76.0632 151.977 75.4786 153.599 75.1253 155.085L74.8121 156.403L73.9899 155.327C70.7533 151.09 67.3239 146.638 62.3353 145.132C61.2417 144.802 60.0783 144.667 58.9057 144.714L58.2661 144.739L58.2384 144.1M84.0177 166.366C84.0226 167.618 84.1292 168.859 84.2394 170.072C84.2467 170.153 84.254 170.233 84.2613 170.314C84.3649 171.451 84.4663 172.564 84.4937 173.68C84.5415 175.651 84.5316 177.628 84.3847 179.586V179.587C84.2071 181.97 83.827 184.316 83.117 186.579C82.2705 189.274 81.018 191.797 79.6734 194.325C79.396 194.847 79.1141 195.37 78.8312 195.895C77.7513 197.898 76.6564 199.93 75.7339 202.036C75.1588 203.35 74.6785 204.684 74.2108 205.99C72.8419 209.802 71.5655 213.309 68.2805 215.828C64.0338 219.093 58.2585 218.077 53.7302 215.416C51.2831 213.979 49.0924 212.065 47.3421 209.829C46.4099 208.637 46.1043 207.832 45.8308 206.364M84.0177 166.366L84.6601 166.363M45.8308 206.364C45.6315 205.293 45.2754 204.258 44.9092 203.268M45.8308 206.364L44.9092 203.268M58.2384 144.1C58.2313 143.937 58.2132 143.801 58.1912 143.635M58.2384 144.1L58.1912 143.635M58.1912 143.635C58.1879 143.609 58.1844 143.583 58.1809 143.557M58.1912 143.635L58.1809 143.557M44.6749 202.642C44.7526 202.848 44.831 203.057 44.9092 203.268M44.6749 202.642L44.9092 203.268" stroke="#2E5378" stroke-width="1.28476"/>
<path d="M89.9376 89.369C89.6949 87.6624 89.5027 85.9515 89.3008 84.2535C89.0797 82.397 88.9234 80.4913 88.349 78.6883C87.1929 75.0674 84.9578 71.9112 83.7271 68.3182C83.1503 66.6308 82.821 65.0955 82.845 63.3033C82.8738 61.3547 83.1311 59.4212 83.2992 57.4812C83.578 54.2372 84.2559 51.0403 85.0129 47.8776C86.0105 43.715 87.5079 39.411 87.0584 35.0878C87.0054 34.5867 86.9406 34.0878 86.8781 33.5868C86.4647 30.3235 87.5654 27.9059 89.0557 25.1009C91.3559 20.7669 94.7855 16.7478 99.184 14.4373C104.018 11.8999 109.921 11.0434 114.97 8.84864C117.141 7.90434 119.227 6.77161 121.217 5.48685C122.032 4.96009 122.652 4.28132 123.51 3.83593C124.803 3.16572 126.173 2.61969 127.502 2.04797C129.096 1.36491 130.795 0.831739 132.502 0.525537C137.712 -0.405915 143.353 -0.0868827 148.431 1.37561C153.414 2.80597 158.589 5.86157 159.821 11.2897C160.14 12.6858 161.183 12.553 162.449 12.553C166.191 11.7008 170.208 12.5552 173.537 14.3838C178.383 17.039 180.019 21.6535 182.626 26.1544C184.942 30.15 188.181 33.4904 191.017 37.107C194.625 41.7086 197.373 46.9033 196.479 52.9288C196.062 55.7382 195.632 58.3741 195.717 61.192C195.805 64.0592 194.441 67.3053 193.726 70.0526C193.262 71.832 193.091 73.7613 192.396 75.44C190.73 79.4506 190.459 83.6796 190.649 87.9493C190.662 88.2598 190.675 88.5703 190.694 88.8829C190.756 89.8979 190.679 91.2769 190.598 92.3068C190.534 93.1398 190.461 93.9063 190.179 94.6922C189.935 95.3645 189.372 96.3967 188.556 96.5187C185.885 96.9127 186.398 89.1484 186.357 87.7181C186.223 82.9987 185.389 77.7205 182.675 73.7249C181.266 71.6521 180.402 69.0291 179.824 66.5923C179.183 63.8921 179.014 61.3483 179.016 58.5946C179.022 54.3078 179.332 49.9824 177.038 46.0853C174.942 42.5244 170.637 40.9506 166.709 40.6551C165.766 40.5844 165.167 40.6444 164.245 40.5887C157.89 40.2054 151.631 40.6444 145.72 43.1304C143.857 43.9141 141.817 44.2353 139.803 44.1967C134.624 44.1025 129.723 42.0298 124.707 40.9763C122.234 40.4538 119.893 40.3339 117.398 40.5052C114.812 40.6829 112.218 40.8435 110.07 42.4987C108.132 43.9912 106.808 46.1432 106.058 48.4493C105.537 50.0446 105.248 51.7105 105.08 53.3742C104.871 55.4662 105.474 57.4576 105.301 59.5282C105.001 63.1384 104.337 66.603 102.592 69.8085C102.14 70.6436 101.831 71.5365 101.448 72.4016C101.102 73.1853 100.581 73.7613 100.114 74.4722C99.0926 76.0289 97.9582 77.5406 97.2491 79.2772C95.6341 83.2407 96.6531 87.5832 96.7108 91.7073C96.735 93.3946 96.7204 95.2297 95.6125 96.6151C94.4682 98.0454 92.9396 97.6493 91.8486 96.3645C90.7092 95.0284 90.5843 93.3282 90.2958 91.6751C90.1613 90.9064 90.0435 90.1398 89.9376 89.369Z" fill="#1E244A"/>
<path d="M163.551 156.072C163.561 156.145 163.574 156.217 163.589 156.29C163.514 156.245 163.441 156.254 163.418 156.089C163.461 156.08 163.508 156.076 163.551 156.072Z" fill="#8CC295"/>
<path d="M120.104 346.792C122.241 348.463 121.342 351.195 119.852 352.966C118.371 354.724 115.055 353.216 114.266 351.452C113.269 349.216 114.581 346.236 117.172 346.054C118.366 345.97 119.107 346.013 120.104 346.792Z" fill="#37628F"/>
<path d="M76.2763 209.184C79.2494 218.406 74.3752 223.734 73.0365 232.363C71.9621 239.271 74.5435 245.519 74.2574 252.266C74.0722 256.619 71.6591 260.347 70.5416 264.457C70.0416 266.298 69.693 268.174 69.4287 270.062C66.9316 288.068 62.8865 305.982 59.3653 323.845C58.5216 328.123 57.7911 332.746 56.6879 337.266C55.2915 342.998 53.2988 348.566 49.7321 353.056C41.2646 363.715 20.9044 367.852 10.1537 358.03C3.73631 352.165 1.26787 342.831 0.393018 334.476C-1.54914 315.952 4.01987 296.111 10.2161 278.872C12.3841 272.84 15.3091 267.114 17.5156 261.097C19.5993 255.407 20.9741 249.8 21.5847 243.765C22.0149 239.519 23.0219 235.361 25.0554 231.586C27.4396 227.156 31.5615 223.974 33.018 219.019C34.9987 212.284 33.7248 204.477 40.582 200.131C41.3486 199.645 42.2308 199.4 42.8317 198.799C42.9542 199.381 43.096 199.961 43.2643 200.54C43.841 202.516 44.8217 204.454 45.1989 206.482C45.4876 208.032 45.8287 208.938 46.836 210.225C48.6361 212.524 50.8881 214.492 53.4047 215.97C58.0289 218.687 64.1195 219.837 68.6717 216.338C72.1279 213.687 73.4546 209.995 74.8151 206.208L74.8198 206.21C75.8749 206.784 75.9181 208.073 76.2763 209.184Z" fill="#63A8E7"/>
<path d="M91.7549 103.846C91.5346 103.846 91.3227 103.724 91.2173 103.514C90.9068 102.893 90.3159 102.493 89.6904 102.069C88.9646 101.579 88.1421 101.022 87.7534 100.045C87.3515 99.0389 87.6276 98.1482 87.871 97.3645C87.9766 97.024 88.0761 96.7028 88.1231 96.3795C88.1697 96.0604 88.0645 95.7714 87.9313 95.4052C87.8676 95.2296 87.8015 95.0498 87.7465 94.8485C87.5707 94.204 87.4131 93.8207 87.0404 93.5145C86.0832 92.7286 85.227 92.341 84.6314 92.4224C84.3173 92.4652 84.0534 92.643 83.8248 92.9684C83.6338 93.2382 83.2589 93.3046 82.9873 93.1119C82.7162 92.9213 82.6516 92.5445 82.8428 92.2747C83.2684 91.6687 83.8158 91.3175 84.47 91.2297C85.4284 91.1013 86.5485 91.5552 87.8025 92.5852C88.4826 93.1419 88.7204 93.8528 88.9058 94.5316C88.9475 94.6836 89.0022 94.8335 89.0604 94.9941C89.2208 95.433 89.4028 95.9341 89.3123 96.5551C89.2516 96.9683 89.1333 97.3516 89.0187 97.7199C88.7991 98.4287 88.6256 98.9876 88.8694 99.6C89.1213 100.232 89.6968 100.621 90.3634 101.073C91.0556 101.542 91.8402 102.073 92.2914 102.975C92.4403 103.27 92.3203 103.632 92.0237 103.782C91.9373 103.825 91.8453 103.846 91.7549 103.846Z" fill="#2E5378"/>
<path d="M188.851 104.561C188.761 104.561 188.669 104.542 188.583 104.497C188.286 104.349 188.166 103.987 188.314 103.69C188.778 102.765 189.586 102.219 190.298 101.735C190.989 101.268 191.586 100.863 191.849 100.206C192.103 99.568 191.913 98.9577 191.695 98.2532C191.577 97.8721 191.453 97.4782 191.391 97.052C191.299 96.4161 191.485 95.9022 191.65 95.4504C191.71 95.2855 191.768 95.1291 191.81 94.9706C192.001 94.2726 192.247 93.5445 192.944 92.9707C194.233 91.9129 195.386 91.4418 196.37 91.5767C197.039 91.6666 197.599 92.0286 198.035 92.6474C198.226 92.9172 198.162 93.294 197.89 93.4846C197.621 93.6773 197.244 93.6132 197.054 93.3412C196.814 93.0008 196.539 92.8145 196.207 92.7695C195.587 92.686 194.697 93.0863 193.705 93.9021C193.316 94.2212 193.153 94.6195 192.969 95.2875C192.914 95.4952 192.845 95.6815 192.779 95.8614C192.642 96.2425 192.533 96.5423 192.58 96.8763C192.629 97.2104 192.732 97.5444 192.841 97.8956C193.091 98.7029 193.376 99.6172 192.965 100.651C192.565 101.653 191.755 102.202 190.972 102.733C190.324 103.172 189.713 103.585 189.39 104.229C189.283 104.439 189.071 104.561 188.851 104.561Z" fill="#2E5378"/>
<path d="M71.49 174.446C71.3521 174.446 72.2482 174.416 72.1575 174.384C72.1222 174.371 72.1178 174.369 72.0866 174.367C71.7558 174.341 71.5087 174.052 71.5346 173.72C71.5607 173.388 71.8502 173.142 72.1808 173.168C72.3269 173.178 71.4287 173.206 71.5114 173.234C71.5689 173.221 71.6282 173.217 71.6868 173.219C73.2817 173.341 74.6707 171.348 75.1724 170.069C76.0062 167.941 76.2394 165.478 75.8656 162.746C75.5495 160.436 75.1357 158.044 73.8815 156.421C73.6463 156.115 73.41 155.806 73.1717 155.496C72.9701 155.232 73.0201 154.853 73.2836 154.652C73.547 154.451 73.9241 154.5 74.1259 154.763C74.3629 155.074 74.5981 155.38 74.832 155.684C76.2676 157.543 76.718 160.11 77.0561 162.583C77.4581 165.521 77.2006 168.187 76.2909 170.508C75.9156 171.465 75.2962 172.416 74.5911 173.116C73.6874 174.016 72.6866 174.465 71.6939 174.425C71.6182 174.44 71.5508 174.446 71.49 174.446Z" fill="#2E5378"/>
<path d="M51.6658 147.918C51.4833 147.918 51.3031 147.837 51.185 147.678C50.9857 147.413 51.039 147.036 51.3041 146.837C53.2707 145.355 55.7325 144.419 58.2362 144.203C58.5653 144.173 58.8581 144.419 58.8867 144.749C58.9156 145.081 58.6707 145.372 58.3401 145.402C56.0575 145.599 53.8154 146.451 52.0265 147.798C51.9183 147.88 51.7915 147.918 51.6658 147.918Z" fill="#2E5378"/>
<path d="M63.9003 183.589C63.0851 183.589 62.3215 183.371 61.7747 182.784C61.7366 182.746 61.5893 182.677 61.4918 182.632C61.1663 182.482 60.6218 182.23 60.5686 181.6C60.5403 181.268 60.7856 180.977 61.1164 180.949C61.4223 180.926 61.6896 181.129 61.7537 181.418C61.8117 181.454 61.9201 181.506 61.9969 181.54C62.2128 181.641 62.4579 181.754 62.6527 181.964C63.5541 182.93 66.0957 182.052 67.2053 181.311C70.3076 179.238 72.5485 174.093 70.5914 168.641C70.3572 167.988 69.9002 167.346 69.4582 166.723C69.2852 166.478 69.1062 166.228 68.9415 165.975C66.33 161.992 63.7502 159.706 61.2736 159.177C58.6144 158.611 55.6437 159.061 54.1093 159.38C53.7847 159.449 53.4663 159.239 53.3989 158.913C53.3313 158.588 53.5401 158.271 53.8649 158.202C55.4914 157.864 58.6491 157.389 61.5236 157.999C64.3603 158.605 67.1155 160.997 69.9464 165.316C70.0985 165.547 70.2633 165.78 70.4376 166.027C70.9267 166.714 71.4324 167.427 71.7222 168.234C73.3372 172.733 72.5365 179.195 67.8723 182.313C67.0561 182.857 65.3925 183.589 63.9003 183.589Z" fill="#2E5378"/>
<path d="M55.8247 189.979C54.7335 189.979 53.6986 189.467 52.9423 188.478C52.3283 187.675 51.9231 186.671 51.8583 185.795C51.8303 185.416 51.8647 185.037 51.8981 184.671C51.9496 184.101 51.9984 183.566 51.8048 183.148C51.319 182.099 50.4249 181.377 49.4782 180.611L49.1636 180.356C48.9065 180.144 48.8685 179.765 49.0785 179.508C49.288 179.251 49.6668 179.212 49.9238 179.422L50.2335 179.675C51.2452 180.493 52.2915 181.341 52.895 182.643C53.2246 183.354 53.1557 184.11 53.095 184.778C53.0648 185.112 53.0361 185.426 53.0569 185.707C53.1044 186.349 53.4262 187.131 53.8967 187.745C54.7846 188.908 56.1239 189.103 57.3914 188.257C59.5963 186.786 60.4862 183.705 60.5839 181.313C60.6339 180.086 60.4455 178.765 60.0236 177.388C59.5827 175.949 58.4039 174.754 57.2639 173.596L56.99 173.318C55.6528 171.954 54.1753 170.962 52.5984 170.371C52.2877 170.256 52.1299 169.909 52.2462 169.596C52.3621 169.286 52.7085 169.127 53.0193 169.245C54.7619 169.896 56.3865 170.984 57.8479 172.476L58.1193 172.752C59.3034 173.953 60.645 175.313 61.1724 177.035C61.6343 178.542 61.8402 179.998 61.7846 181.362C61.6424 184.844 60.2494 187.797 58.0579 189.259C57.3341 189.743 56.5663 189.979 55.8247 189.979Z" fill="#2E5378"/>
<path d="M63.0427 191.21C62.9849 191.21 62.9261 191.201 62.868 191.184C62.5504 191.088 62.3712 190.752 62.4674 190.435C63.3476 187.529 64.3931 185.36 65.8576 183.401C66.1193 183.052 66.3558 182.728 66.5883 182.411C66.9287 181.947 67.2504 181.508 67.6334 181.007C67.835 180.741 68.212 180.692 68.4757 180.893C68.7394 181.095 68.7896 181.474 68.5882 181.737C68.2122 182.229 67.894 182.662 67.5572 183.122C67.3224 183.444 67.0835 183.769 66.8197 184.122C65.4427 185.964 64.4552 188.017 63.6175 190.784C63.5388 191.043 63.3004 191.21 63.0427 191.21Z" fill="#2E5378"/>
<path d="M56.7989 337.414C56.7527 337.414 56.7058 337.41 56.659 337.399C56.3363 337.322 56.1368 336.996 56.2138 336.673C56.9184 333.714 57.4733 330.705 58.0099 327.795C58.2699 326.386 58.5152 325.057 58.7772 323.727C59.6482 319.307 60.5664 314.808 61.4545 310.46C64.1595 297.211 66.9564 283.514 68.835 269.979C69.1267 267.878 69.4956 266.02 69.9631 264.298C70.3841 262.748 70.9893 261.242 71.5742 259.786C72.5878 257.266 73.545 254.883 73.6571 252.24C73.78 249.335 73.3493 246.446 72.9328 243.654C72.3887 240.007 71.8263 236.234 72.442 232.271C72.9005 229.316 73.7574 226.77 74.586 224.305C76.2123 219.473 77.6169 215.297 75.7049 209.37C75.6151 209.092 75.5456 208.809 75.478 208.537C75.2804 207.741 75.1099 207.051 74.5315 206.736C74.2402 206.578 74.1325 206.212 74.2911 205.921C74.4498 205.629 74.8151 205.52 75.1063 205.681C76.1488 206.248 76.4121 207.31 76.6443 208.248C76.7097 208.511 76.7715 208.762 76.8483 209C78.8824 215.306 77.3487 219.864 75.725 224.691C74.9124 227.106 74.0724 229.603 73.6295 232.455C73.0418 236.239 73.5906 239.917 74.1213 243.476C74.5463 246.326 74.9855 249.271 74.8576 252.292C74.737 255.142 73.696 257.731 72.6892 260.236C72.1169 261.66 71.5254 263.131 71.1228 264.615C70.6688 266.285 70.3099 268.094 70.0253 270.146C68.1415 283.717 65.3406 297.434 62.632 310.701C61.7443 315.048 60.8265 319.545 59.9563 323.96C59.6956 325.281 59.4508 326.609 59.1918 328.014C58.6523 330.939 58.0946 333.964 57.3829 336.951C57.317 337.228 57.0707 337.414 56.7989 337.414Z" fill="#2E5378"/>
<path d="M55.7153 246.693C55.5613 246.693 55.4072 246.633 55.2898 246.515C50.1762 241.376 45.6172 235.699 40.3452 228.755C40.1444 228.49 40.1958 228.113 40.4599 227.912C40.7242 227.71 41.1012 227.762 41.302 228.027C46.5447 234.933 51.0746 240.575 56.1409 245.665C56.3752 245.9 56.3746 246.281 56.1396 246.517C56.0222 246.633 55.8686 246.693 55.7153 246.693Z" fill="#2E5378"/>
<path d="M45.9931 260.317C43.1673 260.317 40.1692 259.786 36.8346 258.709C36.5188 258.607 36.3453 258.268 36.4471 257.951C36.5491 257.634 36.8881 257.461 37.2035 257.564C42.286 259.206 46.5326 259.534 50.5677 258.594C50.891 258.519 51.2137 258.72 51.289 259.043C51.3641 259.369 51.1628 259.692 50.8395 259.767C49.2619 260.133 47.6574 260.317 45.9931 260.317Z" fill="#2E5378"/>
<path d="M226.211 379.179C225.877 379.177 225.587 379.168 225.587 379.168C225.626 375.033 225.262 370.766 224.912 366.639C224.606 363.055 224.292 359.348 224.24 355.749C224.146 349.12 223.813 342.377 223.487 335.857C223.372 333.508 223.25 331.079 223.143 328.69C222.506 314.551 221.541 301.104 220.194 287.577C218.774 273.321 217.57 259.375 218.432 245.493C219.054 235.446 221.266 224.725 225.188 212.712C225.29 212.397 225.63 212.226 225.945 212.329C226.261 212.432 226.432 212.772 226.33 213.087C222.44 225.001 220.248 235.624 219.632 245.566C218.776 259.36 219.974 273.252 221.39 287.457C222.739 301.005 223.706 314.474 224.343 328.636C224.452 331.022 224.572 333.45 224.689 335.797C225.012 342.327 225.348 349.081 225.442 355.732C225.493 359.288 225.806 362.974 226.109 366.537C226.462 370.693 226.828 374.988 226.789 379.179C226.789 379.179 226.54 379.179 226.211 379.179Z" fill="#2E5378"/>
<path d="M244.537 356.756C244.365 356.756 244.197 356.683 244.077 356.542C243.863 356.289 243.895 355.908 244.149 355.694C250.516 350.323 254.974 344.962 257.406 339.758C257.547 339.459 257.904 339.328 258.204 339.469C258.505 339.611 258.635 339.968 258.494 340.27C255.99 345.63 251.425 351.131 244.924 356.615C244.81 356.711 244.673 356.756 244.537 356.756Z" fill="#2E5378"/>
<path d="M115.776 298.239C115.483 298.239 115.226 298.025 115.182 297.725C114.252 291.4 112.416 285.353 110.743 280.272C110.163 278.512 109.463 276.702 108.786 274.951C107.328 271.178 105.82 267.276 105.251 263.302C105.204 262.973 105.432 262.668 105.761 262.621C106.089 262.574 106.394 262.803 106.441 263.131C106.99 266.968 108.473 270.805 109.907 274.516C110.589 276.281 111.295 278.107 111.884 279.895C113.574 285.025 115.428 291.135 116.371 297.55C116.42 297.88 116.193 298.186 115.864 298.233C115.835 298.237 115.805 298.239 115.776 298.239Z" fill="#2E5378"/>
<path d="M228.588 208.935C228.511 208.935 228.434 208.92 228.361 208.89C228.053 208.764 227.906 208.413 228.032 208.104C229.007 205.713 230.393 203.529 231.731 201.419C232.638 199.989 233.577 198.512 234.36 197.008C234.511 196.713 234.875 196.599 235.17 196.751C235.463 196.906 235.578 197.268 235.424 197.563C234.618 199.113 233.667 200.614 232.747 202.064C231.434 204.13 230.078 206.267 229.144 208.561C229.048 208.794 228.823 208.935 228.588 208.935Z" fill="#2E5378"/>
<path d="M122.974 68.2636L115.757 69.0947C115.471 69.1296 115.157 69.2693 114.905 69.1855C114.654 69.1017 114.11 68.8503 114.005 68.5639C113.988 68.3851 114.015 68.2047 114.085 68.039C114.154 67.8733 114.263 67.7273 114.403 67.6141C115.172 67.1237 115.972 66.6828 116.797 66.2941C119.589 64.8972 122.597 64.8623 125.591 65.1766C126.472 65.4002 127.307 65.7786 128.055 66.2941C128.315 66.4316 128.513 66.6614 128.611 66.9381C128.709 67.2148 128.7 67.5183 128.586 67.7887C128.418 68.4242 127.888 68.4871 127.336 68.4871H123.002L122.974 68.2636Z" fill="#2E5378"/>
<path d="M154.618 67.5577C155.316 65.8885 156.746 65.3088 158.226 65.1481C161.74 64.6686 165.314 65.3608 168.396 67.1177C168.64 67.2574 168.877 67.411 169.094 67.5716C169.31 67.7323 169.554 67.9069 169.75 68.0536C169.443 68.9615 168.996 69.3806 168.151 69.1641C164.333 68.2002 160.432 68.5006 156.551 68.4656C155.776 68.5145 155.078 68.4237 154.618 67.5577Z" fill="#2E5378"/>
<path d="M123.433 85.3155L124.934 85.8184C124.703 86.007 124.591 86.1816 124.48 86.1816C122.63 86.1816 120.774 86.1816 118.791 86.0489C119.943 85.532 120.187 84.8057 120.013 83.6393C120.032 82.8892 120.328 82.1727 120.843 81.6278C120.945 81.501 121.075 81.3987 121.221 81.3284C121.368 81.2582 121.529 81.2217 121.691 81.2217C121.854 81.2217 122.015 81.2582 122.161 81.3284C122.308 81.3987 122.437 81.501 122.539 81.6278C122.954 82.1645 123.249 82.7836 123.405 83.4437C123.484 84.0647 123.493 84.6925 123.433 85.3155Z" fill="#2E5378"/>
<path d="M163.503 86.105H157.71L157.647 85.8396L159.043 85.3437C159.121 85.1992 159.178 85.0439 159.21 84.8827C159.218 84.0756 159.285 83.2702 159.413 82.4732C159.469 82.157 159.632 81.8699 159.875 81.66C160.118 81.4501 160.425 81.3303 160.746 81.3208C161.096 81.3192 161.435 81.4452 161.7 81.6752C161.964 81.9052 162.136 82.2235 162.184 82.5709C162.294 82.9637 162.339 83.3719 162.316 83.7792C162.247 84.771 162.163 85.7278 163.915 85.63L163.503 86.105Z" fill="#2E5378"/>
<path d="M145.832 102.17C145.199 102.17 144.53 102.018 143.835 101.714C142.646 101.193 141.77 100.637 141.079 99.9663C140.841 99.735 140.835 99.3539 141.066 99.1162C141.297 98.8764 141.677 98.87 141.915 99.1012C142.501 99.6708 143.264 100.15 144.316 100.611C145.018 100.917 145.663 101.028 146.237 100.936C146.673 100.866 147.115 100.729 147.55 100.527C148.121 100.264 149.848 99.4631 148.713 95.7266C148.337 94.4932 147.894 93.2534 147.466 92.0564C147.075 90.9622 146.671 89.8295 146.316 88.6968C146.11 88.0394 146.055 87.4013 146.001 86.7868C145.976 86.4913 145.952 86.2108 145.912 85.9281C145.604 83.7355 145.796 81.4743 146.048 79.3566C146.087 79.0268 146.386 78.7913 146.716 78.8298C147.045 78.8705 147.28 79.1681 147.242 79.5C146.998 81.5364 146.814 83.7033 147.103 85.7611C147.145 86.0759 147.173 86.3842 147.199 86.6818C147.248 87.26 147.295 87.8039 147.462 88.3349C147.81 89.4462 148.21 90.5661 148.597 91.6496C149.032 92.8616 149.478 94.1142 149.863 95.3754C151.055 99.2939 149.536 100.932 148.054 101.619C147.522 101.866 146.972 102.037 146.425 102.125C146.23 102.155 146.033 102.17 145.832 102.17Z" fill="#2E5378"/>
<path d="M132 111.5C135.667 114.667 145.1 119.1 153.5 111.5" stroke="#2E5378" stroke-width="1.5" stroke-linecap="round"/>
<path d="M141.196 0.399994C143.096 0.699994 144.996 0.999994 146.796 1.39999C150.196 2.19999 153.396 3.39999 156.096 5.79999C157.696 7.19999 158.896 8.89999 159.496 10.9C160.096 13 160.496 13.1 162.796 12.9C164.796 12.8 166.896 12.7 168.896 13.1C173.196 13.9 176.796 16.1 178.796 20C182.496 27.1 187.496 33.2 192.296 39.4C194.796 42.6 196.496 46.3 196.496 50.4C196.496 52.4 196.096 54.4 195.896 56.4C195.696 58.7 195.796 61 195.396 63.2C194.896 66.1 193.996 69 193.196 71.9C192.496 74.6 191.596 77.2 190.996 79.9C190.396 82.6 190.296 85.3 190.496 88C191.596 87.5 192.496 86.8 193.496 86.7C196.096 86.3 198.496 88.1 199.296 90.7C200.396 94.4 199.496 97.9 197.496 101.1C195.396 104.5 192.596 107 188.996 108.8C188.296 109.1 187.596 109.6 186.896 109.8C184.896 110.4 183.896 111.8 183.196 113.6C179.896 121.3 174.796 127.7 168.796 133.5C167.396 134.8 165.996 136.1 164.496 137.5C164.496 139.7 164.596 141.9 164.496 144.2C164.296 148.2 163.996 152.1 164.596 156C164.896 158 165.596 160.1 165.496 162.1C165.396 170.9 160.996 176.9 153.496 181.1C143.396 186.8 129.096 181.7 124.196 173.2C122.096 169.6 120.896 165.9 121.496 161.5C121.996 157.8 121.796 153.9 121.696 150.1C121.596 146.7 120.996 143.3 120.696 139.9C120.596 139.2 120.496 138.5 120.496 137.8C120.596 137.7 120.696 137.7 120.896 137.6C119.996 137 119.196 136.5 118.296 135.9C111.296 131.6 105.496 126 100.796 119.2C99.2956 117 97.7956 114.9 96.3956 112.7C95.1956 110.8 93.6957 109.2 91.5957 108.3C87.7957 106.7 84.6957 104.2 82.4957 100.8C80.3957 97.5 79.2957 93.9 80.4957 90C81.0957 88.1 82.4956 86.9 84.3956 86.4C85.9956 86 87.1957 86.4 88.1957 87.6C88.6957 88.1 89.0957 88.7 89.5957 89.2C89.0957 84.6 89.0956 79.8 86.8956 75.5C86.0956 73.9 85.2957 72.3 84.4957 70.7C82.6957 67.2 82.5956 63.6 82.8956 59.7C83.3956 53.5 85.0956 47.6 86.3956 41.6C86.8956 39.4 87.0956 37.1 86.7956 34.9C86.2956 31.1 87.3957 28 89.0957 24.8C92.7957 17.9 98.5957 13.8 106.196 11.8C111.496 10.4 116.796 8.69999 121.296 5.39999C124.496 3.09999 128.096 1.69998 131.996 0.699982C133.196 0.399982 134.396 0.3 135.696 0C137.596 0.4 139.396 0.399994 141.196 0.399994ZM177.896 57.3C177.796 55.4 177.796 53.5 177.496 51.6C176.896 47.1 174.396 44 169.896 42.9C167.996 42.4 165.996 42.3 164.096 42.2C157.596 41.8 151.296 42.4 145.296 45C143.096 45.9 140.796 46.2 138.396 45.8C135.796 45.4 133.196 44.9 130.696 44.3C126.096 43.1 121.596 41.9 116.796 42.2C113.096 42.5 109.996 43.5 108.196 46.9C106.696 49.8 105.896 52.8 106.196 56C106.996 63.1 104.896 69.3 101.296 75.2C99.5956 78 97.4957 80.6 97.4957 84.1C97.4957 86.2 97.7957 88.3 97.6957 90.5C97.6957 92.5 97.5957 94.6 97.1957 96.5C96.8957 97.9 95.7956 98.9 94.2956 99.1C92.6956 99.3 91.4957 98.6 90.6957 97.3C90.1957 96.5 89.6957 95.5 89.4957 94.6C89.1957 93.4 88.9956 92.1 88.7956 90.8C88.4956 89.3 86.9956 87.7 85.7956 87.6C84.3956 87.4 82.5956 88.5 81.7956 90C81.5956 90.4 81.3956 90.8 81.2956 91.3C80.4956 94.7 81.4956 97.7 83.3956 100.5C85.4956 103.7 88.3956 106 91.7956 107.5C94.2956 108.6 95.8956 110.4 97.3956 112.6C100.396 117 103.496 121.4 106.996 125.5C110.596 129.8 115.296 133 119.996 135.9C125.296 139.1 130.596 142.3 136.696 144C139.996 144.9 143.296 145.6 146.796 145C151.296 144.2 155.396 142.5 159.096 140C169.596 132.7 177.896 123.5 182.996 111.6C183.396 110.7 183.696 109.9 184.996 109.4C188.696 108 192.196 106.1 194.896 102.9C197.296 100.1 198.796 96.9 198.696 93.1C198.596 90.1 196.996 88 194.496 87.7C192.796 87.5 191.896 88.3 191.796 90C191.696 91.9 191.496 93.8 191.096 95.7C190.696 97.4 189.396 98.2 188.196 98.1C186.996 98 186.096 97.1 185.596 95.4C185.496 95.2 185.496 95 185.496 94.8C185.396 92.9 185.196 90.9 185.096 89C184.996 83.6 184.196 78.5 181.096 73.9C180.496 73 180.096 72 179.696 71C178.096 66.6 177.696 62 177.896 57.3ZM122.096 138.5C121.996 138.6 121.896 138.6 121.696 138.7C121.896 140.1 122.196 141.6 122.396 143C123.196 149.9 123.196 156.8 122.496 163.7C122.396 164.4 122.396 165.1 122.596 165.8C124.796 177.6 135.696 183.4 146.296 182.5C151.596 182.1 156.096 179.4 159.596 175.3C163.396 170.9 165.496 165.8 164.296 159.9C163.196 154.6 163.096 149.3 163.496 144C163.596 142.2 163.496 140.4 163.496 138.5C163.196 138.7 162.796 139 162.496 139.2C159.796 140.8 157.096 142.5 154.296 143.9C150.796 145.6 147.096 146.7 143.196 146.4C138.096 146.1 133.296 144.5 128.796 142.2C126.596 140.9 124.296 139.7 122.096 138.5Z" fill="#1E244A"/>
<path d="M178.535 57.3271L178.536 57.2967L178.535 57.2663C178.511 56.8098 178.492 56.3465 178.474 55.8786C178.418 54.4468 178.359 52.9707 178.129 51.5075C177.815 49.1642 177.001 47.144 175.644 45.5588C174.285 43.9702 172.413 42.8575 170.053 42.2796C168.115 41.7703 166.087 41.6637 164.229 41.5661L164.135 41.5611C164.134 41.5611 164.133 41.561 164.132 41.5609C157.572 41.1575 151.166 41.7601 145.047 44.41C142.953 45.2656 140.775 45.5477 138.501 45.1686L138.501 45.1686L138.493 45.1674C135.91 44.7701 133.33 44.2738 130.851 43.6791C130.765 43.6566 130.679 43.6342 130.593 43.6117C126.099 42.4389 121.581 41.2596 116.756 41.5612L116.756 41.5611L116.744 41.562C112.966 41.8684 109.584 42.9097 107.63 46.6005L107.63 46.6005L107.627 46.6059C106.086 49.5851 105.244 52.7081 105.558 56.0597L105.558 56.0597L105.56 56.0716C106.339 62.988 104.301 69.0456 100.749 74.8666L100.748 74.8678C100.484 75.3027 100.202 75.745 99.9159 76.1938C99.3153 77.1353 98.6965 78.1053 98.1886 79.0953C97.4231 80.5875 96.8555 82.2146 96.8555 84.0999C96.8555 85.0133 96.9111 85.9276 96.9657 86.8269C96.9753 86.9851 96.9849 87.1428 96.9942 87.3C97.0565 88.36 97.1046 89.4066 97.0562 90.4709L97.0556 90.4854V90.4999C97.0556 92.4845 96.9557 94.5321 96.5695 96.3671C96.3288 97.4878 95.4578 98.2982 94.2139 98.4652C93.531 98.5501 92.9644 98.4413 92.4912 98.1948C92.0134 97.946 91.5928 97.5367 91.2406 96.9645L91.2383 96.9607C90.7551 96.1877 90.2976 95.259 90.1203 94.4611L90.1185 94.4529L90.1164 94.4447C89.8249 93.2786 89.6291 92.0088 89.4281 90.7026L89.4259 90.6884L89.4231 90.6744C89.2444 89.781 88.7234 88.9022 88.0999 88.2372C87.4949 87.5918 86.69 87.0398 85.8679 86.9638C84.9822 86.843 84.0406 87.1313 83.2399 87.6145C82.4267 88.1052 81.6908 88.8364 81.2308 89.6988L81.2269 89.7062L81.2231 89.7137L81.2125 89.735C81.0187 90.1225 80.7877 90.5842 80.6702 91.1635C79.8209 94.7874 80.9035 97.9658 82.8632 100.855C85.0374 104.167 88.0375 106.542 91.5372 108.085L91.5378 108.086C93.8778 109.115 95.3946 110.801 96.8668 112.96C99.8682 117.363 102.984 121.786 106.507 125.913C110.177 130.296 114.952 133.54 119.659 136.445L119.665 136.448L119.699 136.469C120.43 136.91 121.163 137.352 121.899 137.791L121.678 138.012C121.676 138.013 121.675 138.014 121.673 138.014C121.624 138.033 121.519 138.073 121.409 138.127L120.997 138.334L121.062 138.79C121.163 139.5 121.29 140.232 121.414 140.954L121.415 140.959C121.54 141.683 121.663 142.395 121.761 143.082C122.554 149.926 122.554 156.773 121.86 163.623C121.755 164.368 121.75 165.149 121.972 165.946C124.259 178.13 135.518 184.056 146.347 183.138C151.848 182.722 156.495 179.917 160.081 175.717C163.967 171.217 166.173 165.922 164.923 159.772L164.922 159.77C163.838 154.546 163.737 149.309 164.134 144.048L164.134 144.048L164.135 144.035C164.202 142.82 164.18 141.585 164.158 140.348C164.147 139.732 164.136 139.115 164.136 138.5V137.304L163.141 137.967C162.982 138.073 162.8 138.203 162.63 138.325L162.624 138.329C162.452 138.452 162.291 138.567 162.154 138.658C161.972 138.766 161.79 138.874 161.609 138.983C171.176 131.882 178.781 123.057 183.582 111.856C183.599 111.818 183.616 111.78 183.632 111.744C183.817 111.325 183.954 111.015 184.166 110.739C184.377 110.464 184.678 110.208 185.224 109.998C188.974 108.579 192.585 106.63 195.383 103.315C197.856 100.429 199.441 97.0804 199.335 93.0831L199.335 93.0786C199.228 89.8619 197.475 87.4128 194.572 87.0645L194.57 87.0643C193.617 86.9522 192.762 87.1065 192.128 87.6525C191.498 88.1953 191.212 89.0171 191.157 89.9624L191.156 89.9663C191.058 91.842 190.861 93.7048 190.471 95.5606C190.136 96.972 189.106 97.5336 188.249 97.4622C187.421 97.3932 186.671 96.7898 186.21 95.2193L186.193 95.1647L186.168 95.1137C186.145 95.0676 186.136 95.0161 186.136 94.7999V94.7831L186.135 94.7663C186.084 93.8083 186.009 92.8267 185.934 91.8542L185.934 91.8508C185.859 90.8782 185.785 89.9147 185.735 88.9772C185.633 83.5305 184.825 78.2893 181.627 73.5436C181.073 72.7112 180.696 71.7781 180.294 70.7719C178.734 66.4785 178.337 61.9716 178.535 57.3271ZM146.908 145.63C148.037 145.429 149.143 145.173 150.223 144.862C149.09 145.223 147.942 145.494 146.778 145.652C146.82 145.645 146.862 145.638 146.904 145.631L146.908 145.63Z" stroke="#2E5378" stroke-width="1.28"/>
<path d="M149.65 38.1543C149.499 38.1543 149.347 38.0965 149.229 37.9809C148.994 37.7475 148.99 37.3663 149.223 37.1308C153.596 32.6941 155.608 26.8612 157.002 21.7415C157.09 21.4203 157.422 21.2319 157.74 21.3175C158.059 21.4053 158.249 21.7372 158.162 22.0562C155.606 31.45 152.642 35.375 150.078 37.9766C149.96 38.0944 149.807 38.1543 149.65 38.1543Z" fill="black"/>
<path d="M159.306 38.3878C159.058 38.3878 158.824 38.2315 158.737 37.9831C158.628 37.6705 158.792 37.3279 159.107 37.2165C162.299 36.0967 165.165 34.435 167.626 32.2723C167.877 32.0539 168.255 32.0775 168.473 32.328C168.693 32.5785 168.668 32.9575 168.42 33.1759C165.841 35.4414 162.843 37.1823 159.504 38.3535C159.438 38.375 159.37 38.3878 159.306 38.3878Z" fill="black"/>
<path d="M131.724 32.557C131.447 32.557 131.198 32.3642 131.137 32.0816C129.787 25.8184 126.279 21.0798 121.513 19.0819C121.207 18.9535 121.063 18.6001 121.191 18.2939C121.319 17.9877 121.672 17.8443 121.978 17.9706C127.111 20.1247 130.877 25.176 132.312 31.829C132.382 32.1523 132.176 32.4734 131.851 32.5441C131.808 32.5527 131.766 32.557 131.724 32.557Z" fill="black"/>
<path d="M111.494 32.2721C111.395 32.2721 111.295 32.2464 111.203 32.195C107.576 30.1758 104.096 29.3814 100.861 29.8375C100.531 29.8846 100.229 29.6534 100.183 29.3257C100.136 28.996 100.365 28.6919 100.694 28.6448C104.194 28.1523 107.926 28.9938 111.787 31.1437C112.077 31.3043 112.181 31.6704 112.02 31.9616C111.91 32.1586 111.705 32.2721 111.494 32.2721Z" fill="black"/>
</g>
<defs>
<clipPath id="clip0_1286_7256">
<rect width="272" height="380" fill="white"/>
</clipPath>
</defs>
</svg>
